<?xml version="1.0" encoding="UTF-8"?>
<svg version="1.1" xmlns="http://www.w3.org/2000/svg" width="1080" height="1080">
<path d="M0 0 C4.79356033 4.14710054 5.77303053 9.49522983 6.328125 15.62109375 C7.04111399 33.02666728 0.62175894 49.30735803 -7.26953125 64.5625 C-8.61406387 67.23335487 -9.89204459 69.90774585 -11.13671875 72.625 C-14.7537177 80.50408753 -18.24405199 88.0197317 -23.4921875 94.9765625 C-25.625326 97.83916805 -27.29713591 100.86673008 -29 104 C-29.66 104 -30.32 104 -31 104 C-31.07992188 104.54269531 -31.15984375 105.08539062 -31.2421875 105.64453125 C-32.27581029 108.85728661 -34.0665974 111.01855426 -36.125 113.6875 C-36.53024902 114.21424316 -36.93549805 114.74098633 -37.35302734 115.28369141 C-38.56569234 116.85810377 -39.78279536 118.42909466 -41 120 C-41.6290625 120.84949219 -42.258125 121.69898438 -42.90625 122.57421875 C-46.04736127 126.77902452 -49.20368686 130.23794948 -53.30078125 133.515625 C-55.73981032 135.64627108 -57.6683502 138.12016234 -59.640625 140.6796875 C-61 142 -61 142 -64 142 C-65.2537354 150.8433122 -66.21465855 159.62317811 -66.3125 168.5625 C-66.32990234 169.28679199 -66.34730469 170.01108398 -66.36523438 170.75732422 C-66.36032058 176.09493265 -65.211479 180.13044163 -63 185 C-62.34 185.33 -61.68 185.66 -61 186 C-61 186.66 -61 187.32 -61 188 C-52.01267857 187.71468821 -46.95268003 184.49306607 -40.3125 178.625 C-37.84412556 175.82306145 -35.60977023 172.92157761 -33.41015625 169.90625 C-32.29028693 168.39241003 -31.09454429 166.93475799 -29.875 165.5 C-23.86335576 157.48447435 -21.66448864 147.89707498 -19.125 138.375 C-15.76601579 125.94482623 -11.71457742 113.98288428 -7 102 C-6.6596875 101.11183594 -6.319375 100.22367188 -5.96875 99.30859375 C-3.99520434 94.22353054 -1.76128314 89.36024 0.75390625 84.51953125 C1.98373189 82.0328932 3.07428893 79.50583761 4.15454102 76.95141602 C5.74456449 73.28146001 7.47496511 69.67647507 9.1875 66.0625 C9.55552734 65.28326172 9.92355469 64.50402344 10.30273438 63.70117188 C11.20071283 61.80025645 12.10019956 59.90005366 13 58 C13.66 58 14.32 58 15 58 C15.3403125 56.515 15.3403125 56.515 15.6875 55 C16.75367248 51.27957995 18.46432877 48.38098298 20.58203125 45.1640625 C22.10741345 42.83606873 23.52365517 40.45972772 24.9375 38.0625 C33.0890884 24.4554558 33.0890884 24.4554558 36 23 C36.33 22.01 36.66 21.02 37 20 C41.67265028 15.19634084 46.69539278 10.23190226 53.5625 9.75 C57 11 57 11 58.30078125 12.94140625 C66.01480263 29.96835525 60.71533282 47.27690723 54.5625 63.9375 C52.43140647 69.21802605 49.96076914 74.29435373 47.33203125 79.34375 C46.07263925 81.85514754 45.00261188 84.37705329 44 87 C43.34 87 42.68 87 42 87 C41.814375 87.94875 41.62875 88.8975 41.4375 89.875 C40.16039333 94.45207573 37.46090995 97.89475038 34.65625 101.66796875 C33.19334405 103.72776793 32.05266217 105.71045978 31 108 C30.34 108 29.68 108 29 108 C28.7628125 108.69480469 28.525625 109.38960937 28.28125 110.10546875 C26.7689473 113.52198185 24.74761633 116.35756671 22.5 119.3125 C22.09652344 119.86228516 21.69304687 120.41207031 21.27734375 120.97851562 C20.23731309 122.36007451 19.12366546 123.68556298 18 125 C17.34 125 16.68 125 16 125 C15.73960937 125.57363281 15.47921875 126.14726563 15.2109375 126.73828125 C13.90661413 129.1744207 12.42471842 131.09306786 10.625 133.1875 C10.03976562 133.88230469 9.45453125 134.57710937 8.8515625 135.29296875 C6.83414287 137.15291048 5.62341231 137.44653749 3 138 C1.71563266 139.9837767 1.71563266 139.9837767 1 142 C0.34 142 -0.32 142 -1 142 C-5.89026143 164.33446644 -5.89026143 164.33446644 -1 186 C1.92246002 188.19184501 3.62445265 188 7.25 188 C14.43494293 186.08401522 19.62553979 181.94926588 24 176 C24.66 176 25.32 176 26 176 C26.26167969 175.27039063 26.52335938 174.54078125 26.79296875 173.7890625 C28.02043552 170.95278006 29.4561487 168.83641481 31.3125 166.375 C35.9474226 159.88032675 39.21369283 153.0567544 41.375 145.375 C45.83407217 129.7682474 53.22978614 112.60709317 65.625 101.6875 C70.17080309 99.41459846 74.01295144 99.64519022 79 100 C81.36179366 104.20694496 81.26942877 107.41512198 80 112 C77.52938765 118.01900861 74.47213432 123.50872068 70.625 128.75 C65.83408394 135.35742747 62.3638628 142.58997249 59 150 C58.53980469 151.010625 58.07960938 152.02125 57.60546875 153.0625 C55.19094257 159.20546415 54.63547044 164.96523694 54.5625 171.5 C54.5521875 172.27843262 54.541875 173.05686523 54.53125 173.85888672 C54.5821961 177.09750226 54.76516469 179.56056267 56.3046875 182.44140625 C59.15065905 185.05786397 62.250301 185.78391565 66 186 C73.03193787 185.11818142 77.90047875 181.98583707 83.1875 177.42578125 C85 176 85 176 87 176 C87.0928125 175.1646875 87.0928125 175.1646875 87.1875 174.3125 C88 172 88 172 90.1875 169.9375 C97.61422853 162.91509193 101.50266766 151.11441613 106 142 C106.66 142 107.32 142 108 142 C108.24878906 141.29359375 108.49757813 140.5871875 108.75390625 139.859375 C110.15069699 136.65420001 111.88512841 134.07822156 113.9375 131.25 C114.62714844 130.28578125 115.31679688 129.3215625 116.02734375 128.328125 C118 126 118 126 121 125 C121.268125 124.4225 121.53625 123.845 121.8125 123.25 C123.22012561 120.5829199 125.09971976 119.12351603 127.4453125 117.27734375 C129.18861106 115.90503917 129.18861106 115.90503917 131.1875 113.625 C142.77593857 102.809124 155.35919869 98.65987278 170.91796875 98.85546875 C178.31675812 99.20243352 183.82711583 101.75993552 189 107 C192.48088846 112.05965208 193.70587228 116.9165735 192.6875 122.984375 C191.35776506 126.88291607 188.5985201 129.20073995 185 131 C182.6670134 131.04022391 180.33293334 131.04320247 178 131 C178.05220703 129.58847656 178.05220703 129.58847656 178.10546875 128.1484375 C178.13253906 126.90320313 178.15960937 125.65796875 178.1875 124.375 C178.23970703 122.53035156 178.23970703 122.53035156 178.29296875 120.6484375 C177.90176278 115.77661909 176.45720381 112.45720381 173 109 C165.45265257 107.97130846 159.27955538 108.54510955 152.8046875 112.61328125 C150.95701205 113.96358758 150.95701205 113.96358758 149.3828125 115.66796875 C148 117 148 117 146 117 C145.34 118.32 144.68 119.64 144 121 C143.34 121 142.68 121 142 121 C141.34 122.32 140.68 123.64 140 125 C139.34 125 138.68 125 138 125 C137.87625 125.639375 137.7525 126.27875 137.625 126.9375 C137.41875 127.618125 137.2125 128.29875 137 129 C136.34 129.33 135.68 129.66 135 130 C133.94410931 131.63183107 132.9563874 133.30792999 132 135 C131.27109298 136.27098228 130.54192096 137.54181261 129.8125 138.8125 C129.214375 139.864375 128.61625 140.91625 128 142 C127.34 142 126.68 142 126 142 C125.773125 142.94875 125.54625 143.8975 125.3125 144.875 C124.42860465 148.01564944 123.16735371 150.69134924 121.625 153.5625 C116.46312602 163.6718081 113.55348475 174.61289742 115 186 C115.66 186.99 116.32 187.98 117 189 C121.53563826 189.4278904 125.01912282 189.233175 129 187 C131.13457798 185.20877468 133.19695681 183.36613989 135.23046875 181.4609375 C137 180 137 180 139 180 C139.66 178.68 140.32 177.36 141 176 C141.66 176 142.32 176 143 176 C143.66 174.68 144.32 173.36 145 172 C145.66 172 146.32 172 147 172 C147.103125 171.360625 147.20625 170.72125 147.3125 170.0625 C147.539375 169.381875 147.76625 168.70125 148 168 C148.99 167.67 149.98 167.34 151 167 C151.144375 166.401875 151.28875 165.80375 151.4375 165.1875 C152.20335994 162.20915578 153.79097414 161.14932246 156 159 C160.23499101 153.70909971 164.32147476 148.18478079 167.484375 142.18359375 C171.77735118 134.47395992 171.77735118 134.47395992 175.27734375 133.1171875 C179.40000497 132.91139742 181.64792661 133.78599461 185.1875 135.9375 C187.21794946 139.36825944 187.16042781 139.97020806 186.375 143.6875 C185.73226608 145.93706871 185.04614628 147.90770744 184 150 C183.34 150 182.68 150 182 150 C181.74476563 150.85464844 181.48953125 151.70929688 181.2265625 152.58984375 C179.93529796 156.17988814 178.2454493 159.24110547 176.375 162.5625 C172.9067464 169.12863687 171.27191948 175.55759186 173 183 C174.67916925 185.43501855 174.67916925 185.43501855 177 187 C183.03035325 187 186.10026447 185.61647146 191 182 C191.66 182 192.32 182 193 182 C193 181.34 193 180.68 193 180 C193.639375 179.896875 194.27875 179.79375 194.9375 179.6875 C195.618125 179.460625 196.29875 179.23375 197 179 C197.33 178.01 197.66 177.02 198 176 C199.9375 173.8125 199.9375 173.8125 202 172 C202.66 172 203.32 172 204 172 C204.268125 171.43796875 204.53625 170.8759375 204.8125 170.296875 C206.0803979 167.84449354 207.48972342 165.56072317 209 163.25 C209.7734375 162.05117188 209.7734375 162.05117188 210.5625 160.828125 C211.2740625 159.92320312 211.2740625 159.92320312 212 159 C212.66 159 213.32 159 214 159 C214.10183594 158.43796875 214.20367188 157.8759375 214.30859375 157.296875 C215.13648111 154.54660512 216.43198618 152.60904126 218.0625 150.25 C218.88427734 149.05117188 218.88427734 149.05117188 219.72265625 147.828125 C220.35494141 146.92320312 220.35494141 146.92320312 221 146 C222.32 146.99 223.64 147.98 225 149 C222.88637236 160.27268073 215.59809662 171.51573229 208 180 C207.34 180 206.68 180 206 180 C205.67902344 180.85078125 205.67902344 180.85078125 205.3515625 181.71875 C201.23302775 188.6702653 191.27692362 193.93603216 184 197 C180.15866705 197.96356668 176.51709227 198.16421029 172.5625 198.1875 C171.47066406 198.20167969 170.37882813 198.21585938 169.25390625 198.23046875 C164.64746629 197.90420229 161.17294071 196.80988763 157.375 194.1875 C153.75227515 189.32542191 152.52309019 183.8115676 151 178 C149.9578443 179.18707084 148.91630907 180.37468641 147.875 181.5625 C146.9159375 182.65498047 146.9159375 182.65498047 145.9375 183.76953125 C144.22350031 185.74270428 142.54767758 187.74191571 140.875 189.75 C138.48167605 192.53902017 136.06436345 194.92948416 133 197 C132.01 197 131.02 197 130 197 C130 197.66 130 198.32 130 199 C128.75108386 199.48198463 127.50081192 199.96045677 126.25 200.4375 C125.55390625 200.70433594 124.8578125 200.97117187 124.140625 201.24609375 C117.24432502 203.67490013 110.64768882 203.94722835 103.88671875 201.01171875 C100.42233793 199.1540073 98.00259322 197.44995031 96 194 C94.63628847 189.38396512 93.74216038 184.75243048 93 180 C92.3503125 180.99 92.3503125 180.99 91.6875 182 C91.130625 182.66 90.57375 183.32 90 184 C89.01 184 88.02 184 87 184 C86.7421875 184.6084375 86.484375 185.216875 86.21875 185.84375 C84.12101755 189.55512279 80.66859859 191.02555899 77 193 C76.31292969 193.39832031 75.62585938 193.79664063 74.91796875 194.20703125 C69.17907307 197.05135258 63.61315522 197.44357415 57.3125 197.5625 C56.50449951 197.58932861 55.69649902 197.61615723 54.86401367 197.64379883 C48.91055405 197.60647882 45.3604591 196.03878589 41 192 C36.28039937 186.77017228 35.83065796 180.75456081 35 174 C34.67 174.66 34.34 175.32 34 176 C33.34 176 32.68 176 32 176 C31.67 177.32 31.34 178.64 31 180 C30.34 180 29.68 180 29 180 C28.86271484 180.88365234 28.86271484 180.88365234 28.72265625 181.78515625 C26.63189277 188.19306379 17.734515 192.99788172 12 196 C5.01968523 198.9317322 -4.51093859 199.41392753 -11.765625 197.12890625 C-16.52977354 194.72184519 -19.6526052 190.6947896 -22 186 C-22.61609228 183.24772078 -22.91429924 180.49219408 -23.1875 177.6875 C-23.26935547 176.94693359 -23.35121094 176.20636719 -23.43554688 175.44335938 C-23.63442588 173.63005077 -23.81869827 171.81515031 -24 170 C-24.61875 170.99 -25.2375 171.98 -25.875 173 C-26.57625 173.99 -27.2775 174.98 -28 176 C-28.66 176 -29.32 176 -30 176 C-30.33 177.32 -30.66 178.64 -31 180 C-31.66 180 -32.32 180 -33 180 C-33.23332031 180.5671875 -33.46664063 181.134375 -33.70703125 181.71875 C-37.50218349 188.41472857 -45.12042245 193.76255174 -52 197 C-55.99659947 198.02671262 -59.81977379 198.16514535 -63.9375 198.1875 C-65.12214844 198.20167969 -66.30679687 198.21585938 -67.52734375 198.23046875 C-72.61336926 197.892926 -75.90964599 197.03843239 -79.625 193.5 C-85.38886776 185.80244757 -86.67683039 177.40423563 -87 168 C-87.53109375 168.69867187 -88.0621875 169.39734375 -88.609375 170.1171875 C-89.31578125 171.02726563 -90.0221875 171.93734375 -90.75 172.875 C-91.44609375 173.77992188 -92.1421875 174.68484375 -92.859375 175.6171875 C-94.92519752 177.91673447 -96.31855914 178.65927957 -99 180 C-99.68808255 181.32240865 -100.35360954 182.65671984 -101 184 C-102.875 185.703125 -102.875 185.703125 -105 187.25 C-105.70125 187.77078125 -106.4025 188.2915625 -107.125 188.828125 C-109 190 -109 190 -111 190 C-111 190.66 -111 191.32 -111 192 C-129.80012949 201.7616057 -129.80012949 201.7616057 -140 202 C-140.94746094 202.03867187 -141.89492188 202.07734375 -142.87109375 202.1171875 C-152.87305461 202.34653183 -162.07705816 201.64676329 -170 195 C-175.53318356 189.34877519 -178.72094303 181.11609025 -179.25 173.3125 C-179.1675 172.549375 -179.085 171.78625 -179 171 C-179.56847656 171.2165625 -180.13695312 171.433125 -180.72265625 171.65625 C-188.06355769 174.30338641 -193.83650319 174.97137246 -201.15234375 171.8984375 C-207.30137165 168.90842393 -210.43457096 164.18909757 -213 158 C-213.3125 154.4375 -213.3125 154.4375 -213 152 C-215.61052836 154.33653704 -216.99626215 156.6940503 -218.5625 159.8125 C-221.154412 164.68294421 -224.06552049 169.19321477 -227.25 173.6875 C-227.68642822 174.31180908 -228.12285645 174.93611816 -228.57250977 175.5793457 C-229.66159563 177.09280024 -230.82492684 178.55229295 -232 180 C-232.66 180 -233.32 180 -234 180 C-234.226875 180.556875 -234.45375 181.11375 -234.6875 181.6875 C-236.37377267 184.65855185 -238.530354 186.64522125 -241 189 C-241.763125 189.825 -242.52625 190.65 -243.3125 191.5 C-249.94781937 197.67239011 -256.73479119 201.20266753 -265.81640625 201.265625 C-268.24496383 200.97020118 -269.88840139 200.20662778 -272 199 C-272 198.34 -272 197.68 -272 197 C-272.99 196.67 -273.98 196.34 -275 196 C-278.99905635 186.70564145 -279.72054855 176.97641678 -280 167 C-280.37511719 167.59167969 -280.75023437 168.18335938 -281.13671875 168.79296875 C-284.08888666 173.35135396 -286.98679996 177.29550766 -291 181 C-292.11375 182.175625 -292.11375 182.175625 -293.25 183.375 C-302.57145895 192.27275627 -311.31512407 198.11021863 -324.4375 198.1875 C-325.52933594 198.20167969 -326.62117187 198.21585938 -327.74609375 198.23046875 C-331.8725122 197.93820142 -335.31125129 196.84437436 -339 195 C-339 194.34 -339 193.68 -339 193 C-339.66 193 -340.32 193 -341 193 C-344.78090097 188.43141133 -345.15487222 182.67727014 -346 177 C-346.72703125 177.94359375 -346.72703125 177.94359375 -347.46875 178.90625 C-355.87236572 189.63702085 -364.85021872 200.75400297 -379 203 C-384.83154092 203.62766096 -389.80519651 202.79805939 -395 200 C-400.55592746 195.30832792 -403.01370199 191.39621568 -403.6875 184.1875 C-403.80394326 182.45911665 -403.91213297 180.73007151 -404 179 C-404.99 179.33 -405.98 179.66 -407 180 C-407.268125 180.5878125 -407.53625 181.175625 -407.8125 181.78125 C-411.25155863 188.20685955 -422.35148006 194.01494025 -429.0625 196.41015625 C-433.11080858 197.223048 -437.06483927 197.42628438 -441.1875 197.5 C-441.94828857 197.51877197 -442.70907715 197.53754395 -443.49291992 197.55688477 C-449.09085717 197.49275128 -452.39995576 196.20784926 -457 193 C-462.02138092 186.52506145 -462.95909857 181.00162233 -462 173 C-459.6082578 163.52710167 -455.44145022 154.65063632 -451.2578125 145.8671875 C-448.0868758 138.63902744 -446.80213346 131.1925329 -449 123.5 C-451.11504659 118.99403117 -454.97612388 115.810733 -459 113 C-459.66 113 -460.32 113 -461 113 C-461.23332031 113.74378906 -461.46664063 114.48757813 -461.70703125 115.25390625 C-465.74006678 127.32451083 -471.37586508 138.60406451 -477 150 C-477.35900391 150.72783691 -477.71800781 151.45567383 -478.08789062 152.20556641 C-479.7071934 155.47962512 -481.34135374 158.74569405 -483 162 C-483.99 161.67 -484.98 161.34 -486 161 C-487.41852623 158.16294754 -487.24522876 156.15779192 -487 153 C-485.71484375 149.94921875 -485.71484375 149.94921875 -483.9375 146.6875 C-480.02703063 139.28241904 -476.8584888 131.65883934 -473.75927734 123.88574219 C-473.09323341 122.23155461 -472.40212756 120.58750377 -471.70703125 118.9453125 C-469.73317797 114.25652024 -468.32550304 110.09954761 -468 105 C-468.495 104.505 -468.495 104.505 -469 104 C-469.6872877 97.95979846 -469.07847597 92.30374137 -466 87 C-463.33194951 83.75741357 -460.96036408 82.10872046 -456.6875 81.625 C-454 82 -454 82 -453 83 C-452.81740442 88.11267612 -453.15339943 92.95889727 -453.87890625 98.01953125 C-454.13674044 100.21233942 -454.13674044 100.21233942 -453 103 C-450.99983534 104.20882096 -450.99983534 104.20882096 -449 105 C-449 105.66 -449 106.32 -449 107 C-448.319375 107.20625 -447.63875 107.4125 -446.9375 107.625 C-443.08360625 109.42895027 -439.92212236 111.9010345 -437 115 C-437 115.66 -437 116.32 -437 117 C-436.13375 117.2784375 -436.13375 117.2784375 -435.25 117.5625 C-431.35509052 120.05091439 -429.57279479 124.13841693 -428.25 128.4375 C-427.57681268 135.33767004 -428.18470703 140.87500545 -430.25 147.4375 C-430.47671387 148.18104736 -430.70342773 148.92459473 -430.93701172 149.69067383 C-432.94225015 156.12080507 -435.38291349 162.12517953 -438.6875 168 C-440.87451891 172.99890037 -441.88205223 178.74402487 -440 184 C-436.48902903 185.75548548 -432.75935226 185.4691606 -429.0078125 184.46875 C-420.81689676 181.68075578 -420.81689676 181.68075578 -415 176 C-414.01 175.67 -413.02 175.34 -412 175 C-410.18653734 173.1355719 -410.18653734 173.1355719 -408.4375 170.9375 C-407.33498812 169.58840481 -406.19689312 168.26611103 -405 167 C-404.34 167 -403.68 167 -403 167 C-402.67 165.68 -402.34 164.36 -402 163 C-401.34 163 -400.68 163 -400 163 C-399.7628125 161.86433594 -399.525625 160.72867188 -399.28125 159.55859375 C-398.05459727 154.65954143 -395.90874665 150.4759703 -393.5 146.0625 C-393.09652344 145.29615234 -392.69304687 144.52980469 -392.27734375 143.74023438 C-389.2682071 138.13410355 -389.2682071 138.13410355 -387 137 C-385.99578381 135.33587031 -384.99649198 133.66876647 -384 132 C-381.1432839 128.53522787 -378.06498621 125.28076124 -375 122 C-374.30777344 121.23042969 -373.61554688 120.46085938 -372.90234375 119.66796875 C-362.46888905 108.53244981 -348.42320365 99.64536123 -332.9921875 98.84375 C-324.67716714 98.61224131 -317.59182899 98.87667044 -311.125 104.5 C-310.42375 105.325 -309.7225 106.15 -309 107 C-308.47792969 107.41507813 -307.95585937 107.83015625 -307.41796875 108.2578125 C-305.32060205 110.83474239 -305.40862462 113.09935736 -305.1875 116.375 C-305.09855469 117.49648438 -305.00960937 118.61796875 -304.91796875 119.7734375 C-305.00183677 123.07224612 -305.48156789 125.09225415 -307 128 C-310.94972451 131.27262888 -314.01530445 131.11129168 -319 131 C-318.98259766 129.57107422 -318.98259766 129.57107422 -318.96484375 128.11328125 C-318.95582031 126.85902344 -318.94679688 125.60476563 -318.9375 124.3125 C-318.92009766 122.45044922 -318.92009766 122.45044922 -318.90234375 120.55078125 C-318.98521327 117.53764546 -319.29160551 114.91724661 -320 112 C-320.66 112 -321.32 112 -322 112 C-322.66 111.01 -323.32 110.02 -324 109 C-331.10941194 107.77599794 -337.73033635 108.36970815 -343.8125 112.31640625 C-352.75916261 119.20214122 -360.32799605 126.66951306 -365.921875 136.49609375 C-366.27765625 136.99238281 -366.6334375 137.48867188 -367 138 C-367.66 138 -368.32 138 -369 138 C-369.10699219 138.54398438 -369.21398437 139.08796875 -369.32421875 139.6484375 C-370.15210776 142.52929984 -371.42729887 144.96681656 -372.8125 147.625 C-380.01137437 161.83285038 -382.34821065 173.23379541 -382 189 C-377.71 189 -373.42 189 -369 189 C-369 188.34 -369 187.68 -369 187 C-367.34765625 185.58984375 -367.34765625 185.58984375 -365.0625 183.9375 C-356.52884166 177.44711196 -350.00300847 170.00425006 -343.84765625 161.30859375 C-343.23792969 160.54675781 -342.62820313 159.78492188 -342 159 C-341.34 159 -340.68 159 -340 159 C-339.61134766 157.92105469 -339.61134766 157.92105469 -339.21484375 156.8203125 C-337.94316591 153.8680572 -336.42310298 151.49184807 -334.5625 148.875 C-333.66724609 147.60269531 -333.66724609 147.60269531 -332.75390625 146.3046875 C-331 144 -331 144 -329.4140625 142.42578125 C-327.84341408 140.84211641 -326.88091 139.26511138 -325.8125 137.3125 C-325.214375 136.219375 -324.61625 135.12625 -324 134 C-319.12932347 133.52248269 -316.02790286 133.30102606 -311.875 136.125 C-310 139 -310 139 -310.046875 141.59375 C-311.37821162 146.35164154 -313.80459045 150.1832552 -316.375 154.375 C-323.96237672 166.78546851 -323.96237672 166.78546851 -325 181 C-324.15163476 184.05649286 -324.15163476 184.05649286 -322 186 C-318.53865066 187.24608576 -316.26048964 187.48771596 -312.7890625 186.14453125 C-308.15176202 183.6992653 -304.22586868 180.71789567 -300.41015625 177.13671875 C-299 176 -299 176 -297 176 C-296.34 174.68 -295.68 173.36 -295 172 C-294.34 172 -293.68 172 -293 172 C-292.8453125 171.0409375 -292.8453125 171.0409375 -292.6875 170.0625 C-292.460625 169.381875 -292.23375 168.70125 -292 168 C-291.01 167.67 -290.02 167.34 -289 167 C-288.64750867 165.67160294 -288.31780151 164.33712045 -288 163 C-286.44140625 160.78125 -286.44140625 160.78125 -284.5625 158.5 C-281.06032859 154.23012922 -278.87779659 150.98571332 -278.40234375 145.41015625 C-278.32306641 144.54326172 -278.24378906 143.67636719 -278.16210938 142.78320312 C-278.08798828 141.88537109 -278.01386719 140.98753906 -277.9375 140.0625 C-276.88789654 128.0310951 -276.88789654 128.0310951 -276 125 C-273.39080172 123.69540086 -271.41057385 123.8673406 -268.5 123.875 C-267.5203125 123.87242187 -266.540625 123.86984375 -265.53125 123.8671875 C-263 124 -263 124 -261 125 C-259.41634875 129.77003389 -260.08291622 134.8137841 -260.375 139.75 C-260.44074219 141.03390625 -260.44074219 141.03390625 -260.5078125 142.34375 C-260.72771355 146.3752692 -261.02328248 150.36832335 -261.5234375 154.375 C-262.17887893 159.99271535 -262.2221648 165.59945432 -262.25 171.25 C-262.270625 172.3121875 -262.29125 173.374375 -262.3125 174.46875 C-262.31765625 175.49484375 -262.3228125 176.5209375 -262.328125 177.578125 C-262.34214355 178.96112793 -262.34214355 178.96112793 -262.35644531 180.37207031 C-261.93161264 183.5041928 -260.77078563 185.41336726 -259 188 C-254.07582077 187.54193682 -251.71267098 186.19702223 -248 183 C-247.34 183 -246.68 183 -246 183 C-245.75507812 182.45214844 -245.51015625 181.90429688 -245.2578125 181.33984375 C-243.72928223 178.49639769 -241.85891041 176.10978567 -239.875 173.5625 C-229.17208058 159.51707611 -216.6923259 141.55111877 -215 123.625 C-214.26042825 115.87319237 -213.56967591 108.91778065 -208 103 C-204.49156125 101.24578063 -200.81935505 101.32832032 -197 102 C-193.7951415 104.55080574 -192.55363307 106.05232682 -191.45703125 109.91015625 C-190.85303042 116.00714576 -193.64229829 120.64216791 -196.4230957 125.84350586 C-199.00944962 130.75817531 -200.03667498 134.507921 -200 140 C-200.03609375 141.02996094 -200.0721875 142.05992187 -200.109375 143.12109375 C-200.53057245 154.55645772 -200.53057245 154.55645772 -195.9375 164.625 C-191.69150771 166.61248575 -188.48218378 165.95348273 -184 165 C-183.05125 164.855625 -182.1025 164.71125 -181.125 164.5625 C-177.98562686 162.2541374 -177.68790524 159.4762991 -176.7421875 155.7890625 C-175.56326259 151.35878679 -173.80910969 147.20495765 -172 143 C-171.73832031 142.36835937 -171.47664063 141.73671875 -171.20703125 141.0859375 C-167.89279476 133.7728335 -162.80728506 127.38136935 -158 121 C-157.43410156 120.24332031 -156.86820313 119.48664063 -156.28515625 118.70703125 C-146.68780454 106.86297125 -131.88430132 96.35212548 -116.671875 94.17578125 C-110.82497143 93.79111654 -104.13261205 93.92043277 -99 97 C-95.16761113 100.8208802 -93.39892483 103.11064153 -93.35595703 108.75952148 C-93.3963208 109.77574585 -93.3963208 109.77574585 -93.4375 110.8125 C-93.45409668 111.52027588 -93.47069336 112.22805176 -93.48779297 112.95727539 C-93.74586203 118.78656064 -94.92352307 123.09833493 -98 128 C-98.74056641 129.23943359 -98.74056641 129.23943359 -99.49609375 130.50390625 C-103.45963885 136.81987962 -103.45963885 136.81987962 -107 138 C-108.20882096 140.00016466 -108.20882096 140.00016466 -109 142 C-109.66 142 -110.32 142 -111 142 C-111 142.66 -111 143.32 -111 144 C-112.50952148 145.17333984 -112.50952148 145.17333984 -114.62109375 146.4609375 C-115.39259766 146.93273437 -116.16410156 147.40453125 -116.95898438 147.890625 C-117.77689453 148.38046875 -118.59480469 148.8703125 -119.4375 149.375 C-120.22060547 149.85710937 -121.00371094 150.33921875 -121.81054688 150.8359375 C-129.62233868 155.56801879 -137.35176449 159.14615362 -146.25 161.25 C-146.930625 161.42273438 -147.61125 161.59546875 -148.3125 161.7734375 C-151.94135423 162.65955307 -155.26375141 163.20274217 -159 163 C-159.66728781 175.95331312 -159.66728781 175.95331312 -154.1875 187.3125 C-147.43565468 192.52106639 -141.33956684 192.96798544 -133 192 C-123.32175242 189.53478599 -113.34252779 184.44010821 -106.2890625 177.2578125 C-105 176 -105 176 -103 176 C-102.34 174.68 -101.68 173.36 -101 172 C-100.34 172 -99.68 172 -99 172 C-98.9071875 171.1646875 -98.9071875 171.1646875 -98.8125 170.3125 C-97.66983308 167.06029415 -95.43298608 165.43298608 -93 163 C-91.62490118 160.89621634 -90.35356707 158.75986901 -89.11328125 156.57421875 C-88.74589844 156.05472656 -88.37851562 155.53523437 -88 155 C-87.34 155 -86.68 155 -86 155 C-85.87625 154.443125 -85.7525 153.88625 -85.625 153.3125 C-85 151 -85 151 -84.0546875 148.73046875 C-82.94026358 145.84534906 -82.20637415 143.00976812 -81.5 140 C-80.59940711 136.16269115 -79.4886159 132.64558997 -78 129 C-77.731875 127.845 -77.46375 126.69 -77.1875 125.5 C-75.89221061 120.16063917 -73.84492643 115.13630085 -71.81103516 110.04150391 C-70.89832478 107.74406736 -70.0020098 105.44051144 -69.10546875 103.13671875 C-65.9524625 95.08208912 -62.77404985 87.13383368 -58.76171875 79.4609375 C-57.24810271 76.48740355 -55.8102855 73.49730797 -54.39453125 70.4765625 C-53.91927002 69.4656958 -53.44400879 68.4548291 -52.9543457 67.41333008 C-52.00883319 65.39739011 -51.06828561 63.37911143 -50.13354492 61.3581543 C-47.5567648 55.8896491 -44.73509648 50.88446123 -41.29443359 45.91430664 C-39.81044023 43.71966463 -38.6522659 41.47525018 -37.5625 39.0625 C-35.35112048 34.46798333 -32.65269972 30.43638762 -29.6484375 26.32421875 C-27.97364412 24.02890476 -27.97364412 24.02890476 -26.57421875 21.6015625 C-24.69336606 18.49325508 -22.60058646 15.60606311 -20.4375 12.6875 C-20.03853516 12.13771484 -19.63957031 11.58792969 -19.22851562 11.02148438 C-18.20231173 9.64236228 -17.10606172 8.3159406 -16 7 C-15.34 7 -14.68 7 -14 7 C-13.814375 6.4225 -13.62875 5.845 -13.4375 5.25 C-10.45158066 0.57638712 -5.37057339 -2.23773891 0 0 Z M-7.91015625 24.828125 C-8.62042969 25.62734375 -9.33070313 26.4265625 -10.0625 27.25 C-10.77535156 28.03890625 -11.48820312 28.8278125 -12.22265625 29.640625 C-13.91110813 31.88199849 -14.59216703 33.26438189 -15 36 C-15.66 36 -16.32 36 -17 36 C-18.2134676 37.61305421 -18.2134676 37.61305421 -19.35546875 39.734375 C-19.80970215 40.53037109 -20.26393555 41.32636719 -20.73193359 42.14648438 C-21.21227051 43.00564453 -21.69260742 43.86480469 -22.1875 44.75 C-23.18328123 46.50538566 -24.17937461 48.26059427 -25.17578125 50.015625 C-25.65998535 50.87349609 -26.14418945 51.73136719 -26.64306641 52.61523438 C-27.77607651 54.60646193 -28.92777301 56.5819121 -30.10546875 58.546875 C-33.4073795 64.05734857 -36.30020115 69.5842295 -38.87890625 75.46875 C-39.8975535 77.76869223 -40.98312556 80.00934071 -42.125 82.25 C-45.08524125 88.0994367 -47.48250306 94.17157861 -49.89453125 100.26171875 C-51.07761948 103.19226591 -52.32029663 106.09406479 -53.5625 109 C-56.29494653 115.52424156 -58.31575916 122.13827806 -60 129 C-57.27342162 126.35132386 -54.70870428 123.70246599 -52.3125 120.75 C-50 118 -50 118 -48 117 C-46.99260254 115.33779419 -45.99477045 113.66979326 -45 112 C-43.52792584 109.9981409 -42.02112641 108.02728829 -40.5 106.0625 C-38.84240752 103.78331035 -37.42032212 101.43378113 -36 99 C-35.525625 98.19304687 -35.05125 97.38609375 -34.5625 96.5546875 C-33.08732063 94.02475488 -31.61398017 91.49376158 -30.14208984 88.96191406 C-28.8433664 86.73093039 -27.54061281 84.50231674 -26.23828125 82.2734375 C-25.26287925 80.5990408 -24.28761886 78.9245616 -23.3125 77.25 C-22.84908203 76.45835449 -22.38566406 75.66670898 -21.90820312 74.85107422 C-17.80681431 67.79462001 -14.14672167 60.8684492 -11.5 53.125 C-9.74543075 48.0724904 -7.87985735 43.10933481 -5.796875 38.18359375 C-4.40156578 34.36017289 -3.86873526 30.74461951 -3.9375 26.6875 C-3.958125 25.470625 -3.97875 24.25375 -4 23 C-6.19985029 22.76952537 -6.19985029 22.76952537 -7.91015625 24.828125 Z M50 33 C41.47752018 41.73948741 35.42444515 51.08397548 30 62 C29.23621696 63.43076777 28.46757158 64.85894558 27.6953125 66.28515625 C23.27435104 74.48267654 19.16901927 82.50727804 16.01171875 91.28125 C14.87223831 94.34332872 13.46669214 97.16737057 11.96484375 100.0625 C4.85117091 113.74468391 4.85117091 113.74468391 4 128 C4.763125 127.071875 5.52625 126.14375 6.3125 125.1875 C7.75952348 123.44038358 9.17821528 121.82793008 10.8125 120.25 C12.22958315 119.04569007 12.22958315 119.04569007 12 117 C13.485 116.505 13.485 116.505 15 116 C17.10416221 113.36573092 17.10416221 113.36573092 19.125 110.1875 C20.18074219 108.60001953 20.18074219 108.60001953 21.2578125 106.98046875 C22.69785043 104.5169061 23.55628435 102.77658427 24 100 C24.66 100 25.32 100 26 100 C26.29132812 99.46632813 26.58265625 98.93265625 26.8828125 98.3828125 C29.09912428 94.35442191 31.36954677 90.39533912 33.8125 86.5 C40.89681594 74.72323768 46.091887 62.14834777 50 49 C50.24621094 48.18660156 50.49242187 47.37320313 50.74609375 46.53515625 C51.94372727 42.2319351 52.18419065 38.42057559 52 34 C51.34 33.67 50.68 33.34 50 33 Z M-139 122 C-139.804375 122.94875 -140.60875 123.8975 -141.4375 124.875 C-143.19746348 126.82894726 -143.19746348 126.82894726 -143 129 C-143.66 129 -144.32 129 -145 129 C-149.71955243 137.41653517 -154.15303912 145.74737713 -157 155 C-146.78894283 153.40625968 -136.5203497 146.61272612 -128 141 C-127.67 140.34 -127.34 139.68 -127 139 C-125.515 138.505 -125.515 138.505 -124 138 C-120.17302847 134.55835627 -120.17302847 134.55835627 -118 130 C-117.01 129.67 -116.02 129.34 -115 129 C-109.94214544 123.94214544 -106.80757098 116.65939057 -106.625 109.5 C-106.63538045 105.94611791 -106.63538045 105.94611791 -109 104 C-121.33774953 101.89995753 -131.8070268 113.42638502 -139 122 Z " fill="#D8B648" transform="translate(806,452)"/>
<path d="M0 0 C0 0.66 0 1.32 0 2 C0.66 2 1.32 2 2 2 C3.49084832 6.47254497 3.49084832 10.52745503 2 15 C2.98613281 14.94779297 2.98613281 14.94779297 3.9921875 14.89453125 C12.87504897 14.6417669 21.15636369 16.05742108 29.8515625 17.62841797 C32.84907861 18.14685201 35.85898478 18.54271499 38.875 18.9375 C55.29152902 21.26112839 71.16043029 25.14364277 87 30 C88.10730469 30.33902344 89.21460938 30.67804688 90.35546875 31.02734375 C93.26132126 31.96122463 96.13072422 32.95893534 99 34 C99.68690918 34.24862793 100.37381836 34.49725586 101.08154297 34.75341797 C110.2107428 38.08852552 118.96453381 41.4296514 127 47 C127.94617188 47.64066406 128.89234375 48.28132813 129.8671875 48.94140625 C138.94300739 55.28485065 144.42061566 60.92382018 147 72 C147.91386617 80.37249111 147.61830879 86.86261369 143 94 C142 95 142 95 138.4375 95.0625 C137.303125 95.041875 136.16875 95.02125 135 95 C132.56184548 91.18022459 130.85271088 88.02760425 130 83.5625 C127.59517765 71.49762854 118.80819898 61.09826878 109 54 C105.42053534 51.81464263 101.74347477 49.88742234 98 48 C97.13890625 47.54496094 96.2778125 47.08992188 95.390625 46.62109375 C90.79097665 44.22841953 86.27084787 42.25963218 81.30078125 40.7734375 C79 40 79 40 75.69140625 38.5390625 C51.61118978 28.49926854 22.61181703 27.74874299 -3 25 C-3.14695312 25.58265625 -3.29390625 26.1653125 -3.4453125 26.765625 C-5.05093509 32.63445239 -7.25947823 37.80259689 -10.0625 43.19140625 C-11.65373717 46.27141455 -13.1460421 49.39193193 -14.625 52.52734375 C-15.09744141 53.52805908 -15.56988281 54.52877441 -16.05664062 55.55981445 C-16.9963394 57.55540276 -17.93271248 59.5525616 -18.86523438 61.55151367 C-21.52433425 67.17524132 -24.41263757 72.5340676 -27.66992188 77.83398438 C-29.19947244 80.32483838 -30.61605812 82.86320335 -32 85.4375 C-32.49757813 86.35660156 -32.99515625 87.27570313 -33.5078125 88.22265625 C-34.48491012 90.04128559 -35.4589873 91.86154173 -36.4296875 93.68359375 C-39.70708343 99.78663645 -43.23742053 105.68225653 -46.8984375 111.5625 C-50.42684883 117.27992572 -53.70124028 123.14821081 -57 129 C-57.66 129 -58.32 129 -59 129 C-59.3403125 129.99 -59.3403125 129.99 -59.6875 131 C-61.41117638 134.93983173 -63.67572476 138.39060961 -66 142 C-66.79277344 143.27423828 -66.79277344 143.27423828 -67.6015625 144.57421875 C-71.39905629 150.65194283 -75.42919382 156.48819004 -79.69970703 162.24169922 C-81.2544651 164.34409645 -82.79708214 166.45519068 -84.33984375 168.56640625 C-95.29857564 183.53929857 -95.29857564 183.53929857 -101.12109375 190.64453125 C-102.59565685 192.49309995 -104.01287117 194.35563068 -105.41015625 196.26171875 C-105.82031982 196.81996338 -106.2304834 197.37820801 -106.65307617 197.95336914 C-107.81321442 199.54047536 -108.96542958 201.13336427 -110.1171875 202.7265625 C-110.73851562 203.47679687 -111.35984375 204.22703125 -112 205 C-112.66 205 -113.32 205 -114 205 C-114.061875 205.556875 -114.12375 206.11375 -114.1875 206.6875 C-115.3476371 209.98942866 -117.45559795 211.62907991 -120 214 C-123.13684582 217.04971121 -126.08801967 220.20818322 -128.98828125 223.48046875 C-134.13067134 229.20606466 -139.49852498 234.68220279 -144.9375 240.125 C-145.89137093 241.09105215 -146.84514738 242.0571976 -147.79882812 243.0234375 C-148.69923828 243.92578125 -149.59964844 244.828125 -150.52734375 245.7578125 C-151.33937256 246.5739502 -152.15140137 247.39008789 -152.98803711 248.23095703 C-155 250 -155 250 -157 250 C-157 250.66 -157 251.32 -157 252 C-159.04505154 253.79698316 -161.09376583 255.47033924 -163.25 257.125 C-163.88389648 257.61637451 -164.51779297 258.10774902 -165.17089844 258.61401367 C-195.95256486 282.23098187 -230.11100853 294.18659045 -268.8125 294.5 C-269.58833435 294.51080597 -270.3641687 294.52161194 -271.16351318 294.53274536 C-285.52685646 294.6831837 -299.94877097 293.11600203 -312.6875 285.9375 C-313.64172852 285.42993164 -313.64172852 285.42993164 -314.61523438 284.91210938 C-316.4164224 283.95308341 -318.20849808 282.97700049 -320 282 C-321.99592401 280.99188923 -323.99448555 279.98889422 -326 279 C-326 278.34 -326 277.68 -326 277 C-326.53882813 276.92910156 -327.07765625 276.85820313 -327.6328125 276.78515625 C-335.87533375 274.05125069 -343.47430608 265.15659431 -348 258 C-348.51046875 257.23042969 -349.0209375 256.46085937 -349.546875 255.66796875 C-353.94921427 248.74845034 -359.52661209 239.50541024 -358 231 C-355 229 -355 229 -352.5 229.25 C-350 230 -350 230 -347 232 C-345.859375 234.90625 -345.859375 234.90625 -344.75 238.5 C-342.52569605 245.22642635 -339.42880138 250.49365543 -335 256 C-334.2575 256.96873047 -334.2575 256.96873047 -333.5 257.95703125 C-328.99516786 263.57583003 -323.51259191 267.91737316 -317 271 C-317 271.66 -317 272.32 -317 273 C-316.236875 273.0825 -315.47375 273.165 -314.6875 273.25 C-310.62603498 274.07606068 -307.01379708 275.43389601 -303.171875 276.96484375 C-293.69569291 280.05744012 -284.3309024 280.4008621 -274.4375 280.375 C-273.72889832 280.37512085 -273.02029663 280.3752417 -272.29022217 280.37536621 C-261.4140399 280.34893414 -251.33562682 279.58055643 -241 276 C-239.59234375 275.51466797 -239.59234375 275.51466797 -238.15625 275.01953125 C-235.72143607 274.09896117 -233.36740905 273.08086137 -231 272 C-230.19175781 271.65453125 -229.38351563 271.3090625 -228.55078125 270.953125 C-216.37704461 265.6396256 -204.48402219 259.64168455 -194.00390625 251.43359375 C-192 250 -192 250 -190 250 C-190 249.34 -190 248.68 -190 248 C-189.38125 247.9175 -188.7625 247.835 -188.125 247.75 C-187.42375 247.5025 -186.7225 247.255 -186 247 C-185.71253906 246.39414062 -185.42507812 245.78828125 -185.12890625 245.1640625 C-183.74198274 242.50539252 -182.21901451 241.40670756 -179.8125 239.625 C-169.64486599 231.72496782 -160.4950697 222.56894277 -151.375 213.5 C-150.52373535 212.65574463 -150.52373535 212.65574463 -149.65527344 211.79443359 C-147.02884869 209.15779236 -144.5550248 206.49880011 -142.2265625 203.59375 C-141.49179688 202.7378125 -140.75703125 201.881875 -140 201 C-139.34 201 -138.68 201 -138 201 C-137.73123047 200.40904541 -137.46246094 199.81809082 -137.18554688 199.20922852 C-135.99705118 196.99450496 -134.76023243 195.46440923 -133.03125 193.65234375 C-132.46019531 193.04712891 -131.88914062 192.44191406 -131.30078125 191.81835938 C-130.40939453 190.88733398 -130.40939453 190.88733398 -129.5 189.9375 C-128.32101817 188.69841823 -127.14386127 187.45759686 -125.96875 186.21484375 C-125.44732422 185.66948975 -124.92589844 185.12413574 -124.38867188 184.56225586 C-122.79400866 182.84072536 -122.79400866 182.84072536 -121 180 C-120.34 180 -119.68 180 -119 180 C-118.7421875 179.43796875 -118.484375 178.8759375 -118.21875 178.296875 C-116.85830223 175.73295421 -115.27211038 173.54773635 -113.5 171.25 C-112.8915625 170.45078125 -112.283125 169.6515625 -111.65625 168.828125 C-111.1096875 168.22484375 -110.563125 167.6215625 -110 167 C-109.34 167 -108.68 167 -108 167 C-107.59587891 166.13568359 -107.59587891 166.13568359 -107.18359375 165.25390625 C-105.9793982 162.96076819 -104.62488595 161.00080358 -103.0625 158.9375 C-102.55847656 158.26589844 -102.05445313 157.59429688 -101.53515625 156.90234375 C-99.64654553 154.56200425 -97.58122776 152.53651794 -95.375 150.5 C-93.751108 148.9332241 -93.751108 148.9332241 -93 146 C-91.67961773 144.6538402 -90.34403277 143.32254734 -89 142 C-87.57133596 140.14989332 -86.17623067 138.27347685 -84.8125 136.375 C-84.11769531 135.41335938 -83.42289062 134.45171875 -82.70703125 133.4609375 C-81.01082594 131.14025149 -81.01082594 131.14025149 -80 129 C-79.34 129 -78.68 129 -78 129 C-77.7525 128.278125 -77.505 127.55625 -77.25 126.8125 C-75.8600755 123.68516987 -74.1778091 121.64868674 -72 119 C-67.4629161 112.75110937 -67.4629161 112.75110937 -63.41015625 106.1875 C-62.94480469 105.465625 -62.47945313 104.74375 -62 104 C-61.34 104 -60.68 104 -60 104 C-59.73703125 103.28199219 -59.4740625 102.56398438 -59.203125 101.82421875 C-57.9623658 98.91165738 -56.48488581 96.45781012 -54.75 93.8125 C-51.76328477 89.22330916 -48.96453192 84.56217541 -46.26171875 79.80078125 C-45.84535156 79.20652344 -45.42898438 78.61226563 -45 78 C-44.34 78 -43.68 78 -43 78 C-42.87625 77.4225 -42.7525 76.845 -42.625 76.25 C-41.99351176 73.97664233 -41.11141809 72.0746471 -40 70 C-39.34 70 -38.68 70 -38 70 C-38 68.68 -38 67.36 -38 66 C-37.34 66 -36.68 66 -36 66 C-35.73445313 65.12085938 -35.46890625 64.24171875 -35.1953125 63.3359375 C-34.03924408 60.10952434 -32.66789884 57.53533347 -30.875 54.625 C-27.97144926 49.7533521 -25.29337012 44.81895444 -22.75 39.75 C-22.25669189 38.77667725 -22.25669189 38.77667725 -21.75341797 37.78369141 C-20.11907268 34.49581251 -18.65981585 31.20452584 -17.38769531 27.75878906 C-17.1254718 27.05111389 -16.86324829 26.34343872 -16.59307861 25.61431885 C-16.39736267 25.08159363 -16.20164673 24.54886841 -16 24 C-25.88748294 23.92903374 -35.77490093 23.87647357 -45.66259098 23.84456348 C-50.25879763 23.82921265 -54.85482458 23.80857204 -59.45092773 23.77368164 C-84.39437639 23.58952655 -108.99519046 24.51574768 -133.83508873 26.80323792 C-137.53614848 27.13961578 -141.23908147 27.45411818 -144.94189453 27.77050781 C-162.3779567 29.26193154 -179.70151652 31.34870566 -197 34 C-198.01884277 34.15581543 -199.03768555 34.31163086 -200.08740234 34.47216797 C-233.55462202 39.69710149 -273.33607652 46.89071768 -302 66 C-302.99 66 -303.98 66 -305 66 C-305 66.66 -305 67.32 -305 68 C-306.66427936 69.28818776 -308.38358879 70.50566226 -310.125 71.6875 C-314.8514712 75.03491083 -318.55746661 78.36582043 -322 83 C-322.51046875 83.61875 -323.0209375 84.2375 -323.546875 84.875 C-326.89197987 89.76676627 -328.42610621 96.41513662 -327.9375 102.3125 C-325.98391606 109.99659685 -321.35420456 113.77761731 -315 118 C-314.01 118.495 -314.01 118.495 -313 119 C-313 119.66 -313 120.32 -313 121 C-311.6078125 121.185625 -311.6078125 121.185625 -310.1875 121.375 C-307 122 -307 122 -304 124 C-300.72721979 125.191292 -297.35280447 126.06138937 -294 127 C-292.5459375 127.43119141 -292.5459375 127.43119141 -291.0625 127.87109375 C-271.57533115 133.40931037 -251.39935866 137.25534243 -231.20556641 138.81005859 C-227.58234451 139.12208722 -223.98175731 139.60186795 -220.375 140.0625 C-211.60776805 141.15161012 -202.82215302 141.60790431 -194 142 C-194.33 142.99 -194.66 143.98 -195 145 C-200.88918175 146.00703994 -206.64117983 146.1915752 -212.609375 146.23828125 C-214.15087219 146.25297203 -214.15087219 146.25297203 -215.72351074 146.26795959 C-295.77612975 146.87192466 -295.77612975 146.87192466 -326.125 129.25 C-326.87007812 128.82203125 -327.61515625 128.3940625 -328.3828125 127.953125 C-329.18332031 127.48132813 -329.18332031 127.48132813 -330 127 C-330 126.34 -330 125.68 -330 125 C-330.86431641 124.87818359 -330.86431641 124.87818359 -331.74609375 124.75390625 C-336.84773964 123.04746317 -340.33262249 117.55334378 -343.18359375 113.1875 C-347.38971306 104.1715122 -345.71824516 90.90669266 -343.03515625 81.671875 C-339.97725295 73.77902271 -334.08574088 66.79790178 -328 61 C-327.34 61 -326.68 61 -326 61 C-325.34 59.68 -324.68 58.36 -324 57 C-323.01 57 -322.02 57 -321 57 C-320.67 56.01 -320.34 55.02 -320 54 C-318.2578125 52.61328125 -318.2578125 52.61328125 -316.125 51.3125 C-315.42632812 50.87550781 -314.72765625 50.43851562 -314.0078125 49.98828125 C-312 49 -312 49 -309 49 C-309 48.34 -309 47.68 -309 47 C-300.26234998 42.74177815 -291.49427554 38.66402416 -282.4375 35.125 C-281.71320801 34.83939209 -280.98891602 34.55378418 -280.24267578 34.25952148 C-276.23665627 32.72211354 -272.26807647 31.49393405 -268.09301758 30.50976562 C-265.81571542 29.95511651 -263.57172905 29.31964055 -261.3203125 28.66796875 C-243.15494966 23.46180597 -224.66269525 19.46342939 -205.85546875 17.45703125 C-202.73765236 17.08744207 -199.68301555 16.61764604 -196.58813477 16.1027832 C-160.62407244 10.57350673 -124.16982522 10.40339288 -87.87805176 10.60876465 C-82.97944525 10.63068567 -78.08094772 10.62969232 -73.18230057 10.62848854 C-68.37767493 10.62903589 -63.57311883 10.64005263 -58.76851654 10.65449142 C-56.51868966 10.66075038 -54.26885516 10.66477197 -52.01902008 10.66627884 C-38.22177955 10.68572283 -24.70105548 11.34293424 -11 13 C-10.80825195 12.26177002 -10.61650391 11.52354004 -10.41894531 10.76293945 C-8.54027534 3.53006005 -8.54027534 3.53006005 -6.140625 1.17578125 C-4 0 -4 0 0 0 Z " fill="#D8B647" transform="translate(395,372)"/>
<path d="M0 0 C5.39666126 0.42326755 8.01943685 1.37175378 12 5 C13.41369596 6.76646181 14.7679772 8.58193153 16.0625 10.4375 C17.97868394 13.1656906 19.86912446 15.84197611 21.99609375 18.41015625 C24 21 24 21 24.79370117 22.84692383 C25.68736629 24.89868741 26.44594527 26.38151698 28 28 C31.2915248 28.89852637 34.48465815 28.75219897 37.875 28.625 C47.81246251 28.33569978 47.81246251 28.33569978 51.6328125 31.5234375 C52.41398437 32.34070313 53.19515625 33.15796875 54 34 C53.67 35.32 53.34 36.64 53 38 C52.24904053 38.05833008 51.49808105 38.11666016 50.72436523 38.17675781 C36.45976462 38.78423325 36.45976462 38.78423325 24.06640625 44.55078125 C22.43908779 47.53995372 22.43908779 47.53995372 21.27734375 50.7578125 C17.93717966 59.23590483 9.97970141 65.94015191 2 70 C1.01 70 0.02 70 -1 70 C-0.02834519 59.31179712 4.12547781 49.94809751 8 40 C1.07 39.505 1.07 39.505 -6 39 C-6.66 40.32 -7.32 41.64 -8 43 C-9.52603596 45.67056293 -10.82122921 47.82122921 -13 50 C-13.99 50 -14.98 50 -16 50 C-15.77183594 49.11699219 -15.54367188 48.23398437 -15.30859375 47.32421875 C-12.95891598 37.51457747 -12.9767024 29.78508581 -15 20 C-13.15234375 20.24609375 -13.15234375 20.24609375 -11 21 C-9.75390625 22.84765625 -9.75390625 22.84765625 -8.5625 25.0625 C-7.14183941 27.33831715 -7.14183941 27.33831715 -5 29 C-0.59258327 29.70917909 3.57414723 29.47279139 8 29 C7.51080078 27.56720703 7.51080078 27.56720703 7.01171875 26.10546875 C0 5.42183763 0 5.42183763 0 0 Z " fill="#004E3E" transform="translate(218,481)"/>
<path d="M0 0 C1.95596773 1.5682592 2.87979448 2.75958897 4 5 C4.2917763 11.03004347 4.19525634 14.31690891 0.3125 19.0625 C-5.00137034 23.51466164 -9.91278296 24.50322579 -16.69140625 24.296875 C-19.72081121 23.90730685 -21.66691667 22.95677957 -24 21 C-25.73906725 17.5218655 -25.44311022 13.80281157 -25 10 C-20.66268398 1.32536796 -8.9797262 -1.79295698 0 0 Z " fill="#D8B747" transform="translate(908,505)"/>
</svg>
